<svg height="36" viewBox="0 0 36 36" width="36" xmlns="http://www.w3.org/2000/svg"><g fill="none" fill-rule="evenodd"><path d="m0 0h36v36h-36z"/><circle cx="18" cy="18" r="17" stroke="#fd9624" stroke-width="2"/><path d="m27 15.676v7.382c0 .409-.157.759-.472 1.05-.315.292-.693.437-1.135.437h-14.786c-.442 0-.82-.145-1.135-.437-.315-.291-.472-.641-.472-1.05v-7.382c.295.303.633.573 1.015.809 2.424 1.524 4.088 2.594 4.992 3.207.381.26.691.464.929.61.237.145.554.293.949.445s.763.228 1.105.228h.02c.342 0 .71-.076 1.105-.228s.712-.3.95-.446c.237-.145.547-.349.928-.609 1.139-.762 2.806-1.832 5.002-3.207.382-.242.717-.512 1.005-.81zm-1.607-4.221c.435 0 .812.145 1.13.437.318.29.477.641.477 1.05 0 .49-.164.958-.492 1.404s-.737.828-1.226 1.144l-4.7 3.021c-.067.044-.21.138-.427.284-.218.146-.399.263-.543.353s-.318.19-.522.302-.397.196-.578.251c-.18.056-.348.084-.502.084h-.02c-.154 0-.322-.028-.502-.084-.181-.055-.374-.14-.578-.25-.204-.112-.378-.213-.522-.303s-.325-.207-.543-.353c-.217-.146-.36-.24-.427-.284-.609-.396-1.486-.962-2.631-1.696-1.145-.735-1.832-1.177-2.06-1.325-.414-.26-.806-.619-1.175-1.074-.368-.456-.552-.879-.552-1.27 0-.483.139-.886.417-1.208s.674-.483 1.19-.483z" fill="#fd9624"/></g></svg>