<svg xmlns="http://www.w3.org/2000/svg" width="36" height="36" viewBox="0 0 36 36">
    <g fill="none" fill-rule="evenodd">
        <path d="M0 0H36V36H0z"/>
        <circle cx="18" cy="18" r="17" stroke="#FD9624" stroke-width="2"/>
        <path fill="#FD9624" d="M24.976 13.783c.728-.46 1.287-1.188 1.549-2.056-.682.426-1.435.735-2.239.902-.641-.723-1.558-1.174-2.573-1.174-1.946 0-3.523 1.664-3.523 3.717 0 .291.029.575.09.847-2.93-.156-5.526-1.634-7.266-3.885-.303.551-.477 1.19-.477 1.87 0 1.29.622 2.427 1.568 3.095-.577-.019-1.121-.188-1.597-.464v.045c0 1.802 1.214 3.305 2.829 3.645-.297.088-.607.131-.93.131-.227 0-.449-.022-.663-.066.448 1.477 1.75 2.553 3.293 2.582-1.207.997-2.727 1.59-4.378 1.59-.284 0-.565-.015-.84-.05 1.56 1.054 3.412 1.67 5.403 1.67 6.484 0 10.028-5.665 10.028-10.578 0-.162-.002-.322-.009-.48.689-.525 1.288-1.18 1.759-1.926-.632.296-1.312.496-2.024.585z"/>
    </g>
</svg>
